<?xml version="1.0" ?><svg data-name="Layer 1" id="Layer_1" viewBox="0 0 128 128" xmlns="http://www.w3.org/2000/svg"><title/><path d="M64,.87012A63.12988,63.12988,0,1,0,127.12988,64,63.20154,63.20154,0,0,0,64,.87012Zm0,121.35938A58.22949,58.22949,0,1,1,122.229,64,58.29557,58.29557,0,0,1,64,122.22949Z"/><path d="M73.55615,30.07617A34.96759,34.96759,0,0,0,46.25,33.53223h-.00049A35.35615,35.35615,0,0,0,29.00049,59.873l-5.47705-5.47754a2.50843,2.50843,0,0,0-3.46484,0,2.44958,2.44958,0,0,0,0,3.46484L29.895,67.69824a2.52256,2.52256,0,0,0,3.46533,0l9.83691-9.83789a2.44958,2.44958,0,0,0,0-3.46484,2.50843,2.50843,0,0,0-3.46484,0l-5.84619,5.8457A30.34479,30.34479,0,1,1,79.28369,90.23145a29.97218,29.97218,0,0,1-27.95605,1.3584,2.45068,2.45068,0,0,0-2.03271,4.46A35.07208,35.07208,0,0,0,83.3418,93.48438,35.431,35.431,0,0,0,95.05225,47.29785,34.994,34.994,0,0,0,73.55615,30.07617Z"/></svg>